<svg xmlns="http://www.w3.org/2000/svg" viewBox="0 0 512 512" width="512" height="512">
  <defs>
    <!-- Background gradient -->
    <linearGradient id="bgGrad" x1="0%" y1="0%" x2="100%" y2="100%">
      <stop offset="0%" stop-color="#5BA4F5" stop-opacity="1" />
      <stop offset="50%" stop-color="#4A90E2" stop-opacity="1" />
      <stop offset="100%" stop-color="#357ABD" stop-opacity="1" />
    </linearGradient>

    <!-- Radial highlight -->
    <radialGradient id="radialHL" cx="40%" cy="40%">
      <stop offset="0%" stop-color="#ffffff" stop-opacity="0.25" />
      <stop offset="70%" stop-color="#ffffff" stop-opacity="0.05" />
      <stop offset="100%" stop-color="#ffffff" stop-opacity="0" />
    </radialGradient>
  </defs>

  <!-- Background circle -->
  <circle cx="256" cy="256" r="230" fill="url(#bgGrad)"/>

  <!-- Radial highlight -->
  <circle cx="256" cy="256" r="230" fill="url(#radialHL)"/>

  <!-- Depth circles -->
  <circle cx="256" cy="256" r="220" fill="none" stroke="#ffffff" stroke-opacity="0.15" stroke-width="2"/>
  <circle cx="256" cy="256" r="215" fill="none" stroke="#000000" stroke-opacity="0.1" stroke-width="1"/>

  <!-- Dumbbell with glasses -->
  <g transform="translate(256, 256)">
    <!-- Left outer small weight plate -->
    <rect x="-153" y="-38" width="26" height="76" rx="4" fill="#ffffff" opacity="0.9"/>
    <rect x="-150" y="-35" width="20" height="70" rx="3" fill="none" stroke="#4A90E2" stroke-opacity="0.2" stroke-width="2"/>
    <line x1="-140" y1="-30" x2="-140" y2="30" stroke="#4A90E2" stroke-opacity="0.15" stroke-width="1.5"/>

    <!-- Left inner large weight -->
    <rect x="-127" y="-51" width="38" height="102" rx="5" fill="#ffffff"/>
    <rect x="-122" y="-46" width="28" height="92" rx="3" fill="none" stroke="#4A90E2" stroke-opacity="0.3" stroke-width="2.5"/>
    <line x1="-108" y1="-40" x2="-108" y2="40" stroke="#4A90E2" stroke-opacity="0.2" stroke-width="2"/>
    <line x1="-100" y1="-40" x2="-100" y2="40" stroke="#4A90E2" stroke-opacity="0.2" stroke-width="2"/>

    <!-- Left connector bar -->
    <rect x="-89" y="-15" width="38" height="30" rx="3" fill="#ffffff"/>
    <rect x="-87" y="-13" width="34" height="26" rx="2" fill="none" stroke="#4A90E2" stroke-opacity="0.2" stroke-width="1.5"/>

    <!-- Center handle with detailed grip -->
    <rect x="-51" y="-20" width="102" height="40" rx="8" fill="#ffffff"/>
    <rect x="-48" y="-17" width="96" height="34" rx="6" fill="#ffffff" opacity="0.3"/>

    <!-- Detailed grip lines -->
    <line x1="-30" y1="-13" x2="-30" y2="13" stroke="#4A90E2" stroke-opacity="0.35" stroke-width="3"/>
    <line x1="-15" y1="-13" x2="-15" y2="13" stroke="#4A90E2" stroke-opacity="0.35" stroke-width="3"/>
    <line x1="0" y1="-13" x2="0" y2="13" stroke="#4A90E2" stroke-opacity="0.35" stroke-width="3"/>
    <line x1="15" y1="-13" x2="15" y2="13" stroke="#4A90E2" stroke-opacity="0.35" stroke-width="3"/>
    <line x1="30" y1="-13" x2="30" y2="13" stroke="#4A90E2" stroke-opacity="0.35" stroke-width="3"/>

    <!-- Extra detail lines -->
    <line x1="-37" y1="-13" x2="-37" y2="13" stroke="#4A90E2" stroke-opacity="0.25" stroke-width="2"/>
    <line x1="37" y1="-13" x2="37" y2="13" stroke="#4A90E2" stroke-opacity="0.25" stroke-width="2"/>

    <!-- Right connector bar -->
    <rect x="51" y="-15" width="38" height="30" rx="3" fill="#ffffff"/>
    <rect x="53" y="-13" width="34" height="26" rx="2" fill="none" stroke="#4A90E2" stroke-opacity="0.2" stroke-width="1.5"/>

    <!-- Right inner large weight -->
    <rect x="89" y="-51" width="38" height="102" rx="5" fill="#ffffff"/>
    <rect x="94" y="-46" width="28" height="92" rx="3" fill="none" stroke="#4A90E2" stroke-opacity="0.3" stroke-width="2.5"/>
    <line x1="100" y1="-40" x2="100" y2="40" stroke="#4A90E2" stroke-opacity="0.2" stroke-width="2"/>
    <line x1="108" y1="-40" x2="108" y2="40" stroke="#4A90E2" stroke-opacity="0.2" stroke-width="2"/>

    <!-- Right outer small weight plate -->
    <rect x="127" y="-38" width="26" height="76" rx="4" fill="#ffffff" opacity="0.9"/>
    <rect x="130" y="-35" width="20" height="70" rx="3" fill="none" stroke="#4A90E2" stroke-opacity="0.2" stroke-width="2"/>
    <line x1="140" y1="-30" x2="140" y2="30" stroke="#4A90E2" stroke-opacity="0.15" stroke-width="1.5"/>

    <!-- High-quality nerdy glasses -->
    <g transform="translate(0, -5)">
      <!-- Left lens frame -->
      <rect x="-46" y="-46" width="36" height="30" rx="5" fill="none" stroke="#ffffff" stroke-width="6" opacity="0.95"/>
      <rect x="-44" y="-44" width="32" height="26" rx="4" fill="#ffffff" opacity="0.12"/>

      <!-- Left lens inner detail -->
      <rect x="-42" y="-42" width="28" height="22" rx="3" fill="none" stroke="#ffffff" stroke-opacity="0.3" stroke-width="1.5"/>

      <!-- Bridge -->
      <line x1="-10" y1="-31" x2="10" y2="-31" stroke="#ffffff" stroke-width="5" opacity="0.95" stroke-linecap="round"/>

      <!-- Right lens frame -->
      <rect x="10" y="-46" width="36" height="30" rx="5" fill="none" stroke="#ffffff" stroke-width="6" opacity="0.95"/>
      <rect x="12" y="-44" width="32" height="26" rx="4" fill="#ffffff" opacity="0.12"/>

      <!-- Right lens inner detail -->
      <rect x="14" y="-42" width="28" height="22" rx="3" fill="none" stroke="#ffffff" stroke-opacity="0.3" stroke-width="1.5"/>

      <!-- Left temple/arm -->
      <line x1="-46" y1="-31" x2="-61" y2="-26" stroke="#ffffff" stroke-width="5" opacity="0.95" stroke-linecap="round"/>

      <!-- Right temple/arm -->
      <line x1="46" y1="-31" x2="61" y2="-26" stroke="#ffffff" stroke-width="5" opacity="0.95" stroke-linecap="round"/>

      <!-- Enhanced lens glare/reflections -->
      <ellipse cx="-33" cy="-36" rx="5" ry="4" fill="#ffffff" opacity="0.7"/>
      <circle cx="-30" cy="-32" r="2" fill="#ffffff" opacity="0.5"/>
      <ellipse cx="23" cy="-36" rx="5" ry="4" fill="#ffffff" opacity="0.7"/>
      <circle cx="26" cy="-32" r="2" fill="#ffffff" opacity="0.5"/>
    </g>
  </g>

  <!-- Subtle shine effects -->
  <circle cx="256" cy="256" r="220" fill="none" stroke="#ffffff" stroke-opacity="0.25" stroke-width="3" stroke-dasharray="15,8"/>
  <circle cx="256" cy="256" r="210" fill="none" stroke="#ffffff" stroke-opacity="0.15" stroke-width="2" stroke-dasharray="10,6"/>

  <!-- Top highlight arc -->
  <path d="M 100,180 A 180,180 0 0,1 412,180" fill="none" stroke="#ffffff" stroke-opacity="0.3" stroke-width="3" stroke-linecap="round"/>
</svg>
